# xmcd CD database file
#
# Track frame offsets:
#	151
#	24336
#	42938
#	52900
#	68335
#	80652
#	95096
#	109824
#	129575
#	147964
#	157236
#	171474
#	181925
#	196380
#
# Disc length: 2815 seconds
#
# Revision: 1
# Processed by: cddbd v1.5.1PL2 Copyright (c) Steve Scherf et al.
# Submitted via: CDex 1.60beta1
#
DISCID=c10afd0e
DTITLE=Hot Pepper Dixie - Summertime
DYEAR=1900
DGENRE=Jazz
TTITLE0=Summertime
TTITLE1=Avalon
TTITLE2=After you've gone
TTITLE3=Dark Eyes
TTITLE4=Honey suckle Rose
TTITLE5=Do you know what it means to miss New Orleans
TTITLE6=Rosetta
TTITLE7=Up a Lazy River
TTITLE8=Put it on the Ritz
TTITLE9=Joshua fought the Battle of Jericho
TTITLE10=St. James Infirmary
TTITLE11=I found a New Baby
TTITLE12=The blues my Naughty Sweety gives to me
TTITLE13=When it's sleepy time down South
EXTD=
EXTT0=
EXTT1=
EXTT2=
EXTT3=
EXTT4=
EXTT5=
EXTT6=
EXTT7=
EXTT8=
EXTT9=
EXTT10=
EXTT11=
EXTT12=
EXTT13=
PLAYORDER=
